<svg id="Layer_1" data-name="Layer 1" xmlns="http://www.w3.org/2000/svg" viewBox="0 0 457.26 449.63"><path d="M1445.31,314.6c30.3,59,33.6,119.24,10.55,180.92-12.58,33.67-30.36,63.89-59.86,85.6-31.8,23.41-67.33,32-106.16,23.6-46.42-10-82.51-59.91-76.93-106.94,2.52-21.28,14.1-38.6,33.27-47.5,22.42-10.41,46.23-17.95,69.75-25.79,17.43-5.81,35.87-8.77,53-15.35C1411.92,392.59,1442.49,365.12,1445.31,314.6Z" transform="translate(-1013.67 -168.03)" fill="#5e63b6"/><path d="M1229,617.65c-104.74.66-202.35-80.82-214.39-181.23-5.13-42.72,10.59-82.37,46.14-109.54,31.3-23.92,67.25-23.36,102.15-8.74,33.2,13.9,47.3,47.46,38.89,87.63-6.77,32.32-15.68,64.21-21.8,96.64C1171.06,549.77,1182,590,1229,617.65Z" transform="translate(-1013.67 -168.03)" fill="#5e63b6"/><path d="M1072.68,240.49c51.67-54.1,112-77.25,182.65-71.65A258.39,258.39,0,0,1,1321.58,183c51.23,18.39,85.9,76.52,81.45,127.13-3.61,41-46.82,84.87-86.82,86.15-21.22.68-38.7-8.08-52.18-22.73-15-16.28-27.42-34.92-40.89-52.59-13.14-17.23-24.76-35.9-39.58-51.52C1150,234.09,1123.24,227.5,1072.68,240.49Z" transform="translate(-1013.67 -168.03)" fill="#5e63b6"/></svg>